<svg width="38" height="38" viewBox="0 0 38 38" fill="none" xmlns="http://www.w3.org/2000/svg">
<path d="M18.509 0C14.8483 0 11.2698 1.08554 8.22597 3.11933C5.18218 5.15313 2.80983 8.04385 1.40892 11.4259C0.0080197 14.808 -0.358521 18.5296 0.355654 22.12C1.06983 25.7104 2.83264 29.0084 5.42118 31.5969C8.00971 34.1854 11.3077 35.9482 14.8981 36.6624C18.4885 37.3766 22.2101 37.01 25.5921 35.6091C28.9742 34.2082 31.8649 31.8359 33.8987 28.7921C35.9325 25.7483 37.0181 22.1698 37.0181 18.509C37.0135 13.6015 35.062 8.89631 31.5919 5.42618C28.1218 1.95605 23.4165 0.00453769 18.509 0ZM18.509 32.9049C15.6618 32.9049 12.8785 32.0606 10.5111 30.4788C8.1437 28.8969 6.29854 26.6486 5.20895 24.0181C4.11936 21.3876 3.83427 18.4931 4.38974 15.7005C4.94521 12.908 6.31629 10.3429 8.32959 8.32958C10.3429 6.31628 12.908 4.9452 15.7005 4.38973C18.4931 3.83426 21.3876 4.11935 24.0181 5.20894C26.6486 6.29853 28.897 8.14369 30.4788 10.5111C32.0606 12.8785 32.9049 15.6618 32.9049 18.509C32.9004 22.3257 31.3822 25.9847 28.6835 28.6835C25.9847 31.3822 22.3257 32.9004 18.509 32.9049V32.9049ZM25.4499 14.4816L21.4225 18.509L25.4499 22.5365C25.6416 22.7275 25.7938 22.9545 25.8976 23.2045C26.0014 23.4545 26.0548 23.7225 26.0548 23.9932C26.0548 24.2639 26.0014 24.5319 25.8976 24.7818C25.7938 25.0318 25.6416 25.2589 25.4499 25.4499C25.0618 25.833 24.5385 26.0478 23.9932 26.0478C23.4479 26.0478 22.9246 25.833 22.5365 25.4499L18.509 21.4225L14.4816 25.4499C14.0935 25.833 13.5702 26.0478 13.0249 26.0478C12.4796 26.0478 11.9562 25.833 11.5682 25.4499C11.3764 25.2589 11.2243 25.0318 11.1205 24.7818C11.0167 24.5319 10.9633 24.2639 10.9633 23.9932C10.9633 23.7225 11.0167 23.4545 11.1205 23.2045C11.2243 22.9545 11.3764 22.7275 11.5682 22.5365L15.5956 18.509L11.5682 14.4816C11.1818 14.0953 10.9648 13.5713 10.9648 13.0249C10.9648 12.4785 11.1818 11.9545 11.5682 11.5681C11.9545 11.1818 12.4785 10.9647 13.0249 10.9647C13.5713 10.9647 14.0953 11.1818 14.4816 11.5681L18.509 15.5956L22.5365 11.5681C22.9228 11.1818 23.4468 10.9647 23.9932 10.9647C24.5396 10.9647 25.0636 11.1818 25.4499 11.5681C25.8363 11.9545 26.0533 12.4785 26.0533 13.0249C26.0533 13.5713 25.8363 14.0953 25.4499 14.4816V14.4816Z" fill="white"/>
</svg>
